<?xml version="1.0" encoding="UTF-8" standalone="no"?>
<svg width="784px" height="248px" viewBox="0 0 784 248" version="1.1" xmlns="http://www.w3.org/2000/svg" xmlns:xlink="http://www.w3.org/1999/xlink">
    <!-- Generator: Sketch 3.8.1 (29687) - http://www.bohemiancoding.com/sketch -->
    <title>colors</title>
    <desc>Created with Sketch.</desc>
    <defs></defs>
    <g id="Page-1" stroke="none" stroke-width="1" fill="none" fill-rule="evenodd">
        <g id="colors">
            <g id="Group-Copy">
                <g id="logo-a">
                    <path d="M25.3220593,56.363185 L25.3220593,148.417597 C35.3109759,138.041042 46.6315783,132.852842 59.2842061,132.852842 C73.8606252,132.852842 85.9951271,138.300452 95.6880759,149.195835 C105.381025,160.0171 110.227426,173.50642 110.227426,189.6642 C110.227426,206.340807 105.344029,220.126596 95.5770885,231.02198 C85.8841397,241.843245 73.6386515,247.253796 58.8402564,247.253796 C46.3356126,247.253796 35.162992,242.436182 25.3220593,232.800809 L25.3220593,244.140845 L0.349892506,244.140845 L0.349892506,56.363185 L25.3220593,56.363185 Z M84.7003225,190.775968 C84.7003225,180.399413 81.8886696,171.950058 76.2652795,165.427652 C70.5678974,158.757009 63.4277789,155.421737 54.8447098,155.421737 C45.6697048,155.421737 38.1966274,158.645833 32.4252534,165.094121 C26.7278713,171.468291 23.879223,179.769411 23.879223,189.997731 C23.879223,200.522523 26.6908759,208.934818 32.314266,215.23487 C37.9376561,221.683158 45.3367426,224.907254 54.5117475,224.907254 C63.1688086,224.907254 70.3459226,221.683158 76.0433047,215.23487 C81.8146787,208.712464 84.7003225,200.559578 84.7003225,190.775968 L84.7003225,190.775968 Z M161.614596,135.854616 L161.614596,244.140845 L136.642429,244.140845 L136.642429,135.854616 L161.614596,135.854616 Z M256.06488,154.309969 L235.421222,165.316475 C232.165575,158.645832 228.133073,155.310561 223.323595,155.310561 C221.029844,155.310561 219.069086,156.070261 217.441262,157.589686 C215.813439,159.10911 214.999539,161.054685 214.999539,163.426469 C214.999539,167.577091 219.808946,171.690593 229.427902,175.767097 C242.672466,181.474202 251.588365,186.73652 256.175868,191.554206 C260.76337,196.371893 263.057087,202.857143 263.057087,211.010151 C263.057087,221.460825 259.209562,230.206648 251.514396,237.247882 C244.041207,243.918525 235.014321,247.253796 224.433469,247.253796 C206.305435,247.253796 193.46802,238.396798 185.920838,220.682535 L207.230421,210.787797 C210.1901,215.976075 212.446821,219.274288 214.000653,220.682535 C217.034324,223.499028 220.659876,224.907254 224.877419,224.907254 C233.312504,224.907254 237.529983,221.053163 237.529983,213.344864 C237.529983,208.897769 234.274385,204.747209 227.763091,200.89306 C225.247364,199.633049 222.731675,198.410116 220.215947,197.224224 C217.70022,196.038332 215.147535,194.815399 212.557816,193.555389 C205.306603,189.997713 200.201233,186.44009 197.241554,182.882414 C193.467963,178.3612 191.581196,172.543004 191.581196,165.427652 C191.581196,156.014633 194.799799,148.232333 201.237101,142.080518 C207.822387,135.928703 215.8134,132.852842 225.210381,132.852842 C239.04688,132.852842 249.33161,140.005146 256.06488,154.309969 L256.06488,154.309969 Z M285.476543,135.854616 L310.44871,135.854616 L310.44871,145.86053 C315.258188,140.820489 319.364681,137.4111 322.768312,135.632262 C326.393919,133.779306 330.944357,132.852842 336.419764,132.852842 C348.628439,132.852842 358.284247,138.189276 365.387477,148.862305 C373.230626,138.189276 383.848316,132.852842 397.240863,132.852842 C421.584223,132.852842 433.75572,147.639212 433.75572,177.212395 L433.75572,244.140845 L408.672566,244.140845 L408.672566,183.994182 C408.672566,173.617626 407.414721,166.280029 404.898994,161.98117 C402.309275,157.608193 398.0548,155.421737 392.135442,155.421737 C385.254189,155.421737 380.241307,158.015837 377.096648,163.204115 C373.95199,168.392393 372.379684,176.730572 372.379684,188.218901 L372.379684,244.140845 L347.296529,244.140845 L347.296529,184.327712 C347.296529,165.056966 341.747215,155.421737 330.648418,155.421737 C323.619181,155.421737 318.495313,158.052896 315.276662,163.315292 C312.058011,168.577688 310.44871,176.878808 310.44871,188.218901 L310.44871,244.140845 L285.476543,244.140845 L285.476543,135.854616 Z M544.965103,135.854616 L570.048257,135.854616 L570.048257,244.140845 L544.965103,244.140845 L544.965103,232.800809 C534.680218,242.436182 523.618584,247.253796 511.779868,247.253796 C496.833489,247.253796 484.477014,241.843245 474.710074,231.02198 C465.017125,219.97836 460.170723,206.192571 460.170723,189.6642 C460.170723,173.432302 465.017125,159.905924 474.710074,149.084658 C484.403022,138.263393 496.537524,132.852842 511.113943,132.852842 C523.692579,132.852842 534.976186,138.041042 544.965103,148.417597 L544.965103,135.854616 Z M485.697827,189.6642 C485.697827,200.040756 488.472485,208.49011 494.021883,215.012517 C499.719265,221.609041 506.896379,224.907254 515.55344,224.907254 C524.802437,224.907254 532.275514,221.720217 537.972896,215.346047 C543.670278,208.749522 546.518927,200.374285 546.518927,190.220084 C546.518927,180.065883 543.670278,171.690646 537.972896,165.094121 C532.275514,158.645833 524.876428,155.421737 515.775415,155.421737 C507.192345,155.421737 500.015232,158.682892 494.243857,165.205298 C488.546475,171.801823 485.697827,179.954709 485.697827,189.6642 L485.697827,189.6642 Z M601.568681,135.854616 L626.540848,135.854616 L626.540848,145.527 C631.12835,140.709313 635.197848,137.4111 638.749463,135.632262 C642.375069,133.779306 646.66654,132.852842 651.624002,132.852842 C658.209288,132.852842 665.090438,135.002239 672.26766,139.301098 L660.835957,162.203524 C656.10047,158.794084 651.476041,157.08939 646.962531,157.08939 C633.348007,157.08939 626.540848,167.391673 626.540848,187.996548 L626.540848,244.140845 L601.568681,244.140845 L601.568681,135.854616 Z M711.557202,56.363185 L711.557202,170.875316 L746.74021,135.854616 L780.258408,135.854616 L733.310734,181.325938 L783.699017,244.140845 L751.290694,244.140845 L715.552749,198.447169 L711.557202,202.449535 L711.557202,244.140845 L686.585035,244.140845 L686.585035,56.363185 L711.557202,56.363185 Z" id="bismark" fill="#000000"></path>
                    <rect id="Rectangle-15-Copy-7" fill="#D0E64B" x="77.3464373" y="52.6420279" width="147.361179" height="24"></rect>
                    <rect id="Rectangle-15-Copy-10" fill="#33A6B2" x="137" y="88" width="24" height="24"></rect>
                    <rect id="Rectangle-15-Copy-12" fill="#33A6B2" x="209" y="0" width="84.7567568" height="24"></rect>
                    <ellipse id="Oval-45" fill="#196674" cx="295.979555" cy="12" rx="11.9795549" ry="12"></ellipse>
                    <circle id="Oval-45" fill="#196674" cx="172.734644" cy="35.0868728" r="12"></circle>
                    <ellipse id="Oval-45-Copy" fill="#9AC836" cx="221.260442" cy="64.6261138" rx="12" ry="12.02048"></ellipse>
                </g>
            </g>
        </g>
    </g>
</svg>